# xmcd
#
# Track frame offsets: 
#        150
#        21691
#        48131
#        67741
#        90304
#        116699
#        139022
#        158744
#        181925
#        212097
#        232014
#        258465
#        278098
#        315393
#
# Disc length: 4655 seconds
#
# Revision: 1
# Processed by: cddbd v1.5.2PL0 Copyright (c) Steve Scherf et al.
# Submitted via: ExactAudioCopy v0.95b4
#
DISCID=ba122d0e
DTITLE=Kalimba - Amar y Querer
DYEAR=2009
DGENRE=Latino
TTITLE0=Perfume de Gardenia
TTITLE1=Amar y Querer
TTITLE2=Luces de Nueva York
TTITLE3=Ya lo sé que tú te vas
TTITLE4=Amor Eterno
TTITLE5=Al Final
TTITLE6=Desesperado
TTITLE7=Acá entre Nos
TTITLE8=Vivir así es Morir de Amor
TTITLE9=El Último Beso
TTITLE10=Volcán
TTITLE11=Querida
TTITLE12=A mi manera (my way)
TTITLE13=El Triste
EXTD=
EXTT0=
EXTT1=
EXTT2=
EXTT3=
EXTT4=
EXTT5=
EXTT6=
EXTT7=
EXTT8=
EXTT9=
EXTT10=
EXTT11=
EXTT12=
EXTT13=
PLAYORDER=
